<svg version="1.0" xmlns="http://www.w3.org/2000/svg"
 width="563.000000pt" height="561.000000pt" viewBox="0 0 563.000000 561.000000"
 preserveAspectRatio="xMidYMid meet">

<g transform="translate(0.000000,561.000000) scale(0.100000,-0.100000)"
fill="#FFFFFF" stroke="none">
<path d="M790 5096 c0 -231 -2 -265 -16 -270 -9 -3 -130 -6 -270 -6 l-254 0 0
-785 0 -785 793 2 792 3 3 1053 2 1052 -525 0 -525 0 0 -264z m794 -525 c32
-32 57 -63 55 -68 -2 -5 -157 -161 -345 -346 l-340 -336 -117 117 c-64 65
-117 122 -117 127 0 6 27 37 60 70 l60 59 53 -52 c29 -29 57 -52 62 -52 6 0
132 122 280 270 148 149 275 270 280 270 6 0 37 -27 69 -59z m-709 -91 l0 -85
-132 -3 -133 -3 0 -394 0 -395 350 0 350 0 0 180 0 180 90 0 90 0 0 -270 0
-270 -535 0 -535 0 0 575 0 575 228 -2 227 -3 0 -85z"/>
<path d="M427 5182 c-86 -86 -157 -161 -157 -165 0 -4 73 -6 163 -5 l162 3 3
163 c1 89 -1 162 -5 162 -5 0 -79 -71 -166 -158z"/>
<path d="M4475 4968 c-9 -24 -54 -232 -51 -235 1 -2 183 -40 404 -84 288 -59
410 -80 436 -75 48 9 93 49 107 96 10 32 9 44 -7 76 -11 21 -31 46 -46 57 -18
14 -140 42 -419 98 -216 44 -399 79 -407 79 -7 0 -15 -6 -17 -12z"/>
<path d="M4371 4513 c-9 -36 -140 -616 -450 -1998 -72 -319 -144 -640 -161
-714 -16 -73 -30 -134 -30 -136 0 -1 30 -5 68 -8 37 -4 76 -9 87 -12 19 -6 32
45 229 902 338 1467 446 1947 442 1959 -2 6 -37 16 -78 24 -40 7 -78 15 -85
17 -7 3 -16 -11 -22 -34z"/>
<path d="M2020 3340 l0 -280 -395 0 -395 0 -5 -22 c-3 -13 -57 -264 -120 -558
-64 -294 -118 -543 -121 -552 -3 -10 -4 -18 -2 -18 2 0 496 -99 1098 -219
l1095 -220 25 19 c63 49 171 107 245 132 44 15 83 33 87 40 14 25 360 1579
353 1586 -6 6 -568 123 -571 119 -1 -1 -38 -130 -82 -286 -45 -156 -84 -286
-87 -289 -7 -7 -1046 197 -1058 208 -4 4 29 132 73 286 44 153 79 283 76 289
-3 10 -160 45 -199 45 -15 0 -17 -26 -17 -280z"/>
<path d="M2427 3533 c-11 -21 -109 -384 -105 -388 9 -10 243 -53 249 -47 7 9
109 367 109 385 0 9 -36 20 -113 35 -126 24 -134 25 -140 15z"/>
<path d="M2866 3433 c-45 -155 -106 -376 -104 -378 2 -2 58 -14 126 -28 87
-17 125 -21 128 -13 8 23 113 391 111 392 -6 3 -225 44 -239 44 -9 0 -19 -8
-22 -17z"/>
<path d="M4506 3420 c-35 -136 -82 -356 -77 -361 10 -10 189 -42 199 -35 5 3
15 32 21 65 l12 60 -75 148 c-63 126 -75 144 -80 123z"/>
<path d="M4375 2858 c-15 -48 -135 -594 -131 -603 4 -12 193 -51 202 -42 8 7
144 611 139 616 -5 4 -173 40 -193 41 -7 0 -14 -6 -17 -12z"/>
<path d="M4190 2055 c0 -7 -99 -444 -106 -467 -4 -12 8 -25 38 -44 24 -15 67
-47 96 -71 35 -30 53 -40 56 -31 6 16 124 535 128 562 3 17 -9 22 -87 37 -96
19 -125 22 -125 14z"/>
<path d="M782 1715 c-26 -21 -34 -43 -58 -140 -31 -126 -28 -154 16 -186 24
-17 150 -41 1846 -354 165 -30 305 -55 310 -55 5 0 17 35 27 79 10 43 37 117
62 165 29 57 40 88 32 90 -49 14 -2158 427 -2179 426 -14 0 -40 -11 -56 -25z"/>
<path d="M3575 1464 c-223 -44 -413 -225 -470 -449 -19 -76 -19 -224 0 -298
56 -214 240 -395 455 -448 89 -22 231 -15 325 15 184 59 344 221 403 406 88
274 -49 591 -310 720 -133 65 -261 82 -403 54z m240 -170 c268 -69 405 -373
283 -624 -132 -270 -500 -329 -714 -115 -100 100 -148 245 -126 377 46 264
299 430 557 362z"/>
<path d="M3645 1121 c-130 -34 -215 -150 -202 -276 22 -213 271 -310 429 -167
60 55 82 104 83 187 0 110 -46 185 -145 235 -43 22 -122 32 -165 21z"/>
</g>
</svg>
